<mxfile host="app.diagrams.net" modified="2021-06-18T01:54:51.463Z" agent="5.0 (Macintosh; Intel Mac OS X 10_15_7) AppleWebKit/537.36 (KHTML, like Gecko) Chrome/91.0.4472.106 Safari/537.36" etag="EIGz9b3Fn_HrsZachd42" version="14.4.9" type="github">
  <diagram id="ifRQwkW7oT9Itc5MFCcN" name="Page-1">
    <mxGraphModel dx="815" dy="454" grid="1" gridSize="10" guides="1" tooltips="1" connect="1" arrows="1" fold="1" page="1" pageScale="1" pageWidth="850" pageHeight="1100" math="0" shadow="0">
      <root>
        <mxCell id="0" />
        <mxCell id="1" parent="0" />
        <mxCell id="bJwIXZfq5w23qAXPM63_-2" value="" style="rounded=0;whiteSpace=wrap;html=1;fillColor=none;" vertex="1" parent="1">
          <mxGeometry x="80" y="80" width="640" height="330" as="geometry" />
        </mxCell>
        <mxCell id="bJwIXZfq5w23qAXPM63_-3" value="" style="rounded=0;whiteSpace=wrap;html=1;" vertex="1" parent="1">
          <mxGeometry x="450" y="320" width="110" height="90" as="geometry" />
        </mxCell>
        <mxCell id="bJwIXZfq5w23qAXPM63_-4" value="" style="rounded=0;whiteSpace=wrap;html=1;" vertex="1" parent="1">
          <mxGeometry x="150" y="350" width="130" height="60" as="geometry" />
        </mxCell>
        <mxCell id="bJwIXZfq5w23qAXPM63_-5" value="" style="rounded=0;whiteSpace=wrap;html=1;fillColor=#a20025;strokeColor=#6F0000;fontColor=#ffffff;" vertex="1" parent="1">
          <mxGeometry x="560" y="380" width="160" height="30" as="geometry" />
        </mxCell>
        <mxCell id="bJwIXZfq5w23qAXPM63_-6" value="" style="rounded=0;whiteSpace=wrap;html=1;fillColor=#fad7ac;strokeColor=#b46504;" vertex="1" parent="1">
          <mxGeometry x="360" y="80" width="290" height="50" as="geometry" />
        </mxCell>
        <mxCell id="bJwIXZfq5w23qAXPM63_-7" value="" style="rounded=0;whiteSpace=wrap;html=1;fillColor=#fad7ac;strokeColor=#b46504;" vertex="1" parent="1">
          <mxGeometry x="200" y="180" width="450" height="70" as="geometry" />
        </mxCell>
        <mxCell id="bJwIXZfq5w23qAXPM63_-8" value="" style="rounded=0;whiteSpace=wrap;html=1;fillColor=#fad7ac;strokeColor=#b46504;" vertex="1" parent="1">
          <mxGeometry x="650" y="80" width="70" height="170" as="geometry" />
        </mxCell>
        <mxCell id="bJwIXZfq5w23qAXPM63_-10" value="Entrance" style="text;html=1;strokeColor=#001DBC;fillColor=#0050ef;align=center;verticalAlign=middle;whiteSpace=wrap;rounded=0;fontColor=#ffffff;" vertex="1" parent="1">
          <mxGeometry x="162" y="370" width="90" height="20" as="geometry" />
        </mxCell>
        <mxCell id="bJwIXZfq5w23qAXPM63_-11" value="" style="rounded=0;whiteSpace=wrap;html=1;" vertex="1" parent="1">
          <mxGeometry x="620" y="355" width="20" height="20" as="geometry" />
        </mxCell>
        <mxCell id="bJwIXZfq5w23qAXPM63_-12" value="" style="rounded=0;whiteSpace=wrap;html=1;fillColor=#a20025;strokeColor=#6F0000;fontColor=#ffffff;" vertex="1" parent="1">
          <mxGeometry x="80" y="200" width="40" height="210" as="geometry" />
        </mxCell>
        <mxCell id="bJwIXZfq5w23qAXPM63_-13" value="&lt;font color=&quot;#ffffff&quot;&gt;tabel&lt;/font&gt;" style="text;html=1;strokeColor=none;fillColor=none;align=center;verticalAlign=middle;whiteSpace=wrap;rounded=0;rotation=-90;" vertex="1" parent="1">
          <mxGeometry x="80" y="269" width="40" height="20" as="geometry" />
        </mxCell>
        <mxCell id="bJwIXZfq5w23qAXPM63_-17" value="" style="rounded=0;whiteSpace=wrap;html=1;fillColor=#b0e3e6;strokeColor=#0e8088;" vertex="1" parent="1">
          <mxGeometry x="200" y="80" width="160" height="50" as="geometry" />
        </mxCell>
        <mxCell id="bJwIXZfq5w23qAXPM63_-18" value="kitchen" style="text;html=1;strokeColor=none;fillColor=none;align=center;verticalAlign=middle;whiteSpace=wrap;rounded=0;" vertex="1" parent="1">
          <mxGeometry x="240" y="95" width="110" height="20" as="geometry" />
        </mxCell>
        <mxCell id="bJwIXZfq5w23qAXPM63_-24" value="" style="group" vertex="1" connectable="0" parent="1">
          <mxGeometry x="420" y="209" width="120" height="30" as="geometry" />
        </mxCell>
        <mxCell id="bJwIXZfq5w23qAXPM63_-20" value="" style="rounded=1;whiteSpace=wrap;html=1;" vertex="1" parent="bJwIXZfq5w23qAXPM63_-24">
          <mxGeometry width="120" height="30" as="geometry" />
        </mxCell>
        <mxCell id="bJwIXZfq5w23qAXPM63_-21" value="pos system" style="text;html=1;strokeColor=none;fillColor=none;align=center;verticalAlign=middle;whiteSpace=wrap;rounded=0;" vertex="1" parent="bJwIXZfq5w23qAXPM63_-24">
          <mxGeometry x="8.571428571428571" y="3.5" width="102.85714285714285" height="20" as="geometry" />
        </mxCell>
        <mxCell id="bJwIXZfq5w23qAXPM63_-25" value="" style="group" vertex="1" connectable="0" parent="1">
          <mxGeometry x="580" y="200" width="100" height="45" as="geometry" />
        </mxCell>
        <mxCell id="bJwIXZfq5w23qAXPM63_-15" value="" style="rounded=1;whiteSpace=wrap;html=1;" vertex="1" parent="bJwIXZfq5w23qAXPM63_-25">
          <mxGeometry width="100" height="45" as="geometry" />
        </mxCell>
        <mxCell id="bJwIXZfq5w23qAXPM63_-16" value="coffee machine" style="text;html=1;strokeColor=none;fillColor=none;align=center;verticalAlign=middle;whiteSpace=wrap;rounded=0;" vertex="1" parent="bJwIXZfq5w23qAXPM63_-25">
          <mxGeometry x="10" y="9" width="80" height="25" as="geometry" />
        </mxCell>
        <mxCell id="bJwIXZfq5w23qAXPM63_-26" value="" style="group" vertex="1" connectable="0" parent="1">
          <mxGeometry x="276" y="206.5" width="100" height="30" as="geometry" />
        </mxCell>
        <mxCell id="bJwIXZfq5w23qAXPM63_-22" value="" style="rounded=1;whiteSpace=wrap;html=1;" vertex="1" parent="bJwIXZfq5w23qAXPM63_-26">
          <mxGeometry width="99.17355371900827" height="30" as="geometry" />
        </mxCell>
        <mxCell id="bJwIXZfq5w23qAXPM63_-23" value="bakery stand" style="text;html=1;strokeColor=none;fillColor=none;align=center;verticalAlign=middle;whiteSpace=wrap;rounded=0;" vertex="1" parent="bJwIXZfq5w23qAXPM63_-26">
          <mxGeometry x="0.8264462809917356" y="5.5" width="99.17355371900827" height="20" as="geometry" />
        </mxCell>
        <mxCell id="bJwIXZfq5w23qAXPM63_-27" value="" style="rounded=0;whiteSpace=wrap;html=1;fillColor=#008a00;strokeColor=#005700;fontColor=#ffffff;" vertex="1" parent="1">
          <mxGeometry x="80" y="80" width="40" height="110" as="geometry" />
        </mxCell>
        <mxCell id="bJwIXZfq5w23qAXPM63_-28" value="&lt;font color=&quot;#ffffff&quot;&gt;staff&lt;/font&gt;" style="text;html=1;strokeColor=none;fillColor=none;align=center;verticalAlign=middle;whiteSpace=wrap;rounded=0;rotation=-90;" vertex="1" parent="1">
          <mxGeometry x="80" y="130" width="40" height="20" as="geometry" />
        </mxCell>
        <mxCell id="bJwIXZfq5w23qAXPM63_-29" value="coffee staff area&amp;nbsp;" style="text;html=1;strokeColor=none;fillColor=none;align=center;verticalAlign=middle;whiteSpace=wrap;rounded=0;" vertex="1" parent="1">
          <mxGeometry x="450" y="95" width="190" height="20" as="geometry" />
        </mxCell>
        <mxCell id="bJwIXZfq5w23qAXPM63_-30" value="coffee staff area&amp;nbsp;" style="text;html=1;strokeColor=none;fillColor=none;align=center;verticalAlign=middle;whiteSpace=wrap;rounded=0;rotation=90;" vertex="1" parent="1">
          <mxGeometry x="610" y="150" width="190" height="20" as="geometry" />
        </mxCell>
        <mxCell id="bJwIXZfq5w23qAXPM63_-31" value="" style="rounded=0;whiteSpace=wrap;html=1;" vertex="1" parent="1">
          <mxGeometry x="125" y="209" width="20" height="20" as="geometry" />
        </mxCell>
        <mxCell id="bJwIXZfq5w23qAXPM63_-32" value="" style="rounded=0;whiteSpace=wrap;html=1;" vertex="1" parent="1">
          <mxGeometry x="125" y="240" width="20" height="20" as="geometry" />
        </mxCell>
        <mxCell id="bJwIXZfq5w23qAXPM63_-33" value="" style="rounded=0;whiteSpace=wrap;html=1;" vertex="1" parent="1">
          <mxGeometry x="125" y="270" width="20" height="20" as="geometry" />
        </mxCell>
        <mxCell id="bJwIXZfq5w23qAXPM63_-34" value="" style="rounded=0;whiteSpace=wrap;html=1;" vertex="1" parent="1">
          <mxGeometry x="125" y="300" width="20" height="20" as="geometry" />
        </mxCell>
        <mxCell id="bJwIXZfq5w23qAXPM63_-35" value="&lt;font color=&quot;#ffffff&quot;&gt;tabel&lt;/font&gt;" style="text;html=1;strokeColor=none;fillColor=none;align=center;verticalAlign=middle;whiteSpace=wrap;rounded=0;rotation=0;" vertex="1" parent="1">
          <mxGeometry x="613" y="386" width="40" height="20" as="geometry" />
        </mxCell>
        <mxCell id="bJwIXZfq5w23qAXPM63_-36" value="" style="rounded=0;whiteSpace=wrap;html=1;fillColor=#a20025;strokeColor=#6F0000;fontColor=#ffffff;" vertex="1" parent="1">
          <mxGeometry x="290" y="380" width="160" height="30" as="geometry" />
        </mxCell>
        <mxCell id="bJwIXZfq5w23qAXPM63_-37" value="&lt;font color=&quot;#ffffff&quot;&gt;tabel&lt;/font&gt;" style="text;html=1;strokeColor=none;fillColor=none;align=center;verticalAlign=middle;whiteSpace=wrap;rounded=0;rotation=0;" vertex="1" parent="1">
          <mxGeometry x="340" y="386" width="40" height="20" as="geometry" />
        </mxCell>
        <mxCell id="bJwIXZfq5w23qAXPM63_-38" value="" style="rounded=0;whiteSpace=wrap;html=1;" vertex="1" parent="1">
          <mxGeometry x="330" y="355" width="20" height="20" as="geometry" />
        </mxCell>
        <mxCell id="bJwIXZfq5w23qAXPM63_-39" value="" style="rounded=0;whiteSpace=wrap;html=1;" vertex="1" parent="1">
          <mxGeometry x="380" y="355" width="20" height="20" as="geometry" />
        </mxCell>
        <mxCell id="bJwIXZfq5w23qAXPM63_-40" value="" style="rounded=0;whiteSpace=wrap;html=1;" vertex="1" parent="1">
          <mxGeometry x="445" y="306" width="120" height="10" as="geometry" />
        </mxCell>
        <mxCell id="bJwIXZfq5w23qAXPM63_-41" value="" style="rounded=0;whiteSpace=wrap;html=1;rotation=90;" vertex="1" parent="1">
          <mxGeometry x="535" y="336" width="70" height="10" as="geometry" />
        </mxCell>
        <mxCell id="bJwIXZfq5w23qAXPM63_-43" value="" style="rounded=0;whiteSpace=wrap;html=1;rotation=90;" vertex="1" parent="1">
          <mxGeometry x="404" y="336" width="70" height="10" as="geometry" />
        </mxCell>
        <mxCell id="bJwIXZfq5w23qAXPM63_-44" value="&lt;font style=&quot;font-size: 10px&quot;&gt;stand&amp;nbsp;&lt;/font&gt;" style="text;html=1;strokeColor=none;fillColor=none;align=center;verticalAlign=middle;whiteSpace=wrap;rounded=0;" vertex="1" parent="1">
          <mxGeometry x="481" y="304.5" width="40" height="9" as="geometry" />
        </mxCell>
      </root>
    </mxGraphModel>
  </diagram>
</mxfile>
